<?xml version="1.0" encoding="utf-8"?>
<!-- Generator: Adobe Illustrator 21.1.0, SVG Export Plug-In . SVG Version: 6.00 Build 0)  -->
<svg version="1.1" xmlns="http://www.w3.org/2000/svg" xmlns:xlink="http://www.w3.org/1999/xlink" x="0px" y="0px" width="96px"
	 height="96px" viewBox="0 0 96 96" enable-background="new 0 0 96 96" xml:space="preserve">
<g id="guides">
</g>
<g id="Darth-Vader">
</g>
<g id="Storm-Trooper">
</g>
<g id="Storm-Trooper-2">
</g>
<g id="Storm-Trooper-3">
</g>
<g id="Death-Star">
</g>
<g id="Falcon">
</g>
<g id="Kylo">
</g>
<g id="Boba-Fett">
</g>
<g id="R2D2">
</g>
<g id="Battle-Droid">
	<path fill="none" stroke="#000000" stroke-width="4" stroke-linecap="round" stroke-linejoin="round" stroke-miterlimit="10" d="
		M42,84.333C42,81.388,45.239,79,48,79c2.761,0,6,2.388,6,5.333V87H42V84.333z"/>
	<g>
		
			<circle fill="none" stroke="#000000" stroke-width="4" stroke-linecap="round" stroke-linejoin="round" stroke-miterlimit="10" cx="37" cy="32" r="1"/>
	</g>
	<g>
		
			<circle fill="none" stroke="#000000" stroke-width="4" stroke-linecap="round" stroke-linejoin="round" stroke-miterlimit="10" cx="59" cy="32" r="1"/>
	</g>
	
		<line fill="none" stroke="#000000" stroke-width="4" stroke-linecap="round" stroke-linejoin="round" stroke-miterlimit="10" x1="24" y1="94" x2="72" y2="94"/>
	
		<rect x="72" y="86" fill="none" stroke="#000000" stroke-width="4" stroke-linecap="round" stroke-linejoin="round" stroke-miterlimit="10" width="18" height="8"/>
	
		<rect x="6" y="86" fill="none" stroke="#000000" stroke-width="4" stroke-linecap="round" stroke-linejoin="round" stroke-miterlimit="10" width="18" height="8"/>
	
		<line fill="none" stroke="#000000" stroke-width="4" stroke-linecap="round" stroke-linejoin="round" stroke-miterlimit="10" x1="6" y1="94" x2="2" y2="94"/>
	
		<line fill="none" stroke="#000000" stroke-width="4" stroke-linecap="round" stroke-linejoin="round" stroke-miterlimit="10" x1="94" y1="94" x2="90" y2="94"/>
	<path fill="none" stroke="#000000" stroke-width="4" stroke-linecap="round" stroke-linejoin="round" stroke-miterlimit="10" d="
		M32.504,83C35.172,77.103,41.107,73,48,73c6.895,0,12.831,4.105,15.498,10.004"/>
	
		<line fill="none" stroke="#000000" stroke-width="4" stroke-linecap="round" stroke-linejoin="round" stroke-miterlimit="10" x1="53.771" y1="83" x2="63" y2="83"/>
	
		<line fill="none" stroke="#000000" stroke-width="4" stroke-linecap="round" stroke-linejoin="round" stroke-miterlimit="10" x1="33" y1="83" x2="42.223" y2="83"/>
	
		<line fill="none" stroke="#000000" stroke-width="4" stroke-linecap="round" stroke-linejoin="round" stroke-miterlimit="10" x1="52" y1="87" x2="52" y2="94"/>
	
		<line fill="none" stroke="#000000" stroke-width="4" stroke-linecap="round" stroke-linejoin="round" stroke-miterlimit="10" x1="44" y1="87" x2="44" y2="94"/>
	
		<line fill="none" stroke="#000000" stroke-width="4" stroke-linecap="round" stroke-linejoin="round" stroke-miterlimit="10" x1="38" y1="83" x2="34" y2="94"/>
	
		<line fill="none" stroke="#000000" stroke-width="4" stroke-linecap="round" stroke-linejoin="round" stroke-miterlimit="10" x1="58" y1="83" x2="62" y2="94"/>
	<path fill="none" stroke="#000000" stroke-width="4" stroke-linecap="round" stroke-linejoin="round" stroke-miterlimit="10" d="
		M24,28C24,14.745,34.745,4,48,4s24,10.745,24,24c0,0-1.846,24.879-3.127,33.172c-0.844,5.458-5.374,21.832-5.374,21.832"/>
	<path fill="none" stroke="#000000" stroke-width="4" stroke-linecap="round" stroke-linejoin="round" stroke-miterlimit="10" d="
		M24,28c0,0,1.737,25.018,2.983,33.357c0.796,5.328,5.183,21.31,5.183,21.31"/>
	<path fill="none" stroke="#000000" stroke-width="4" stroke-linecap="round" stroke-linejoin="round" stroke-miterlimit="10" d="
		M67.496,14C63.139,20.056,56.03,24,48,24c-8.032,0-15.142-3.945-19.499-10.004"/>
	<path fill="none" stroke="#000000" stroke-width="4" stroke-linecap="round" stroke-linejoin="round" stroke-miterlimit="10" d="
		M27.407,63.667C31.602,56.678,39.255,52,48,52c8.647,0,16.225,4.573,20.45,11.432"/>
	
		<polyline fill="none" stroke="#000000" stroke-width="4" stroke-linecap="round" stroke-linejoin="round" stroke-miterlimit="10" points="
		71.478,23 79,23 79,41 71,41 	"/>
	
		<line fill="none" stroke="#000000" stroke-width="4" stroke-linecap="round" stroke-linejoin="round" stroke-miterlimit="10" x1="75" y1="23" x2="75" y2="2"/>
	
		<polyline fill="none" stroke="#000000" stroke-width="4" stroke-linecap="round" stroke-linejoin="round" stroke-miterlimit="10" points="
		24.98,41 19,41 19,23 24.522,23 	"/>
</g>
<g id="BB8">
</g>
<g id="C3PO">
</g>
<g id="BONUS">
</g>
</svg>
