<?xml version="1.0" encoding="utf-8"?>
<!-- Generator: Adobe Illustrator 21.1.0, SVG Export Plug-In . SVG Version: 6.00 Build 0)  -->
<svg version="1.1" xmlns="http://www.w3.org/2000/svg" xmlns:xlink="http://www.w3.org/1999/xlink" x="0px" y="0px" width="96px"
	 height="96px" viewBox="0 0 96 96" enable-background="new 0 0 96 96" xml:space="preserve">
<g id="guides">
</g>
<g id="Darth-Vader">
</g>
<g id="Storm-Trooper">
</g>
<g id="Storm-Trooper-2">
	<path fill="none" stroke="#000000" stroke-width="4" stroke-linecap="round" stroke-linejoin="round" stroke-miterlimit="10" d="
		M20.563,49.503c-4.313,4.08-1.765,8.001-1.765,8.001l10.709,18.149c0.499,0.846,1.542,1.208,2.462,0.854
		c2.003-0.772,3.79-2.812,8.015-5.158C42.393,70.01,44.733,69,48,69l0,0c3.267,0,5.877,1.01,8.288,2.348
		c4.225,2.346,6.011,4.386,8.015,5.158c0.92,0.354,1.962-0.008,2.462-0.854l10.709-18.149c0,0,2.599-3.396-2.018-7.99"/>
	<g>
		<path fill="none" stroke="#000000" stroke-width="4" stroke-linecap="round" stroke-linejoin="round" stroke-miterlimit="10" d="
			M70.492,83.408c0.783,0.779,0.783,2.043,0,2.822c-0.783,0.779-2.053,0.779-2.836,0c-0.783-0.779-0.783-2.043,0-2.822
			C68.439,82.628,69.709,82.628,70.492,83.408z"/>
	</g>
	
		<line fill="none" stroke="#000000" stroke-width="4" stroke-linecap="round" stroke-linejoin="round" stroke-miterlimit="10" x1="14.669" y1="62.368" x2="20.561" y2="72.265"/>
	
		<line fill="none" stroke="#000000" stroke-width="4" stroke-linecap="round" stroke-linejoin="round" stroke-miterlimit="10" x1="81.735" y1="62.368" x2="75.843" y2="72.265"/>
	<path fill="none" stroke="#000000" stroke-width="4" stroke-linecap="round" stroke-miterlimit="10" d="M58.031,90.307
		C55.285,92.493,51.789,94,48,94c-3.827,0-7.327-1.534-10.085-3.759"/>
	<path fill="none" stroke="#000000" stroke-width="4" stroke-linecap="round" stroke-miterlimit="10" d="M83.114,31.934
		C83.114,15.47,69.575,2,53.028,2H43C26.453,2,12.914,15.47,12.914,31.934v5.075v5.901C0.985,56.755,8.112,67.985,8.112,67.985
		s7.02,13.943,11.658,21.801c4.638,7.858,14.337,2.43,18.211,0.412C42.703,87.739,48,88,48,88l0,0c0,0,5.23-0.253,9.952,2.206
		c3.874,2.018,13.521,7.573,18.159-0.285S87.75,68.085,87.75,68.085s7.398-11.33-4.636-25.174V36.93V31.934"/>
	
		<line fill="none" stroke="#000000" stroke-width="4" stroke-linecap="round" stroke-miterlimit="10" x1="13" y1="40" x2="83" y2="40"/>
	
		<line fill="none" stroke="#000000" stroke-width="4" stroke-linecap="round" stroke-miterlimit="10" x1="13" y1="34" x2="83" y2="34"/>
	<path fill="none" stroke="#000000" stroke-width="4" stroke-linecap="round" stroke-linejoin="round" stroke-miterlimit="10" d="
		M14.877,39.917C17.127,43.992,20.026,53,28,53c8.587,0,14.06-7.096,20.014-7.096S59.413,53,68,53
		c7.973,0,10.901-9.008,13.151-13.083"/>
</g>
<g id="Storm-Trooper-3">
</g>
<g id="Death-Star">
</g>
<g id="Falcon">
</g>
<g id="Kylo">
</g>
<g id="Boba-Fett">
</g>
<g id="R2D2">
</g>
<g id="Battle-Droid">
</g>
<g id="BB8">
</g>
<g id="C3PO">
</g>
<g id="BONUS">
</g>
</svg>
