<?xml version="1.0" encoding="utf-8"?>
<!-- Generator: Adobe Illustrator 21.1.0, SVG Export Plug-In . SVG Version: 6.00 Build 0)  -->
<svg version="1.1" xmlns="http://www.w3.org/2000/svg" xmlns:xlink="http://www.w3.org/1999/xlink" x="0px" y="0px" width="96px"
	 height="96px" viewBox="0 0 96 96" enable-background="new 0 0 96 96" xml:space="preserve">
<g id="guides">
</g>
<g id="Darth-Vader">
</g>
<g id="Storm-Trooper">
</g>
<g id="Storm-Trooper-2">
</g>
<g id="Storm-Trooper-3">
</g>
<g id="Death-Star">
</g>
<g id="Falcon">
</g>
<g id="Kylo">
	<path fill="none" stroke="#000000" stroke-width="4" stroke-linecap="round" stroke-linejoin="round" stroke-miterlimit="10" d="
		M56,94h4.844c0.713,0,1.37-0.376,1.728-0.993C65.521,87.92,77.055,65,81.5,65l1.827,0.003c2.762,0.004,4.697-2.727,3.777-5.332
		l-3.145-14.568l0.041-13c0-16.5-13.5-30-30-30H44c-16.5,0-30,13.5-30,30l0.041,13l-3.144,14.566
		c-0.92,2.604,1.013,5.334,3.774,5.332L16.5,65c4.445,0,15.979,22.92,18.928,28.007C35.786,93.624,36.443,94,37.156,94H42l0,0
		c0-2.2,1.8-4,4-4h6C54.2,90,56,91.8,56,94L56,94z"/>
	<path fill="none" stroke="#000000" stroke-width="4" stroke-linecap="round" stroke-miterlimit="10" d="M56,49
		c0,0,7.551,19.411,20.142,20.905"/>
	
		<polyline fill="none" stroke="#000000" stroke-width="4" stroke-linecap="round" stroke-linejoin="round" stroke-miterlimit="10" points="
		67.75,83.578 76.954,81 77,81 76.142,69.905 	"/>
	
		<polyline fill="none" stroke="#000000" stroke-width="4" stroke-linecap="round" stroke-linejoin="round" stroke-miterlimit="10" points="
		30.351,83.761 21.01,81 21,81 21.858,69.905 	"/>
	<path fill="none" stroke="#000000" stroke-width="4" stroke-linecap="round" stroke-miterlimit="10" d="M65,51c0,0-11-3-16-3
		s-16,3-16,3c-2.75,0-5-2.25-5-5l0,0c0-2.75,2.25-5,5-5c0,0,11,2,16,2s16-2,16-2c2.75,0,5,2.25,5,5l0,0C70,48.75,67.75,51,65,51z"/>
	<path fill="none" stroke="#000000" stroke-width="4" stroke-linecap="round" stroke-miterlimit="10" d="M21.858,69.905
		c2.338-2.621,5.242-7.125,1.643-9.812C18.979,57.035,16,51.859,16,46c0-9.374,7.626-17,17-17l2.145,0.193
		C39.275,29.943,46.305,31,49,31c2.695,0,9.725-1.057,13.855-1.807L65,29c9.374,0,17,7.626,17,17c0,5.859-2.979,11.035-7.502,14.093
		c-3.553,2.653-0.767,7.078,1.555,9.712"/>
	<path fill="none" stroke="#000000" stroke-width="4" stroke-linecap="round" stroke-miterlimit="10" d="M27.756,55.668
		C24.33,53.802,22,50.168,22,46c0-6.065,4.935-11,11-11l1.073,0.097C36.987,35.626,45.349,37,49,37
		c3.651,0,12.013-1.374,14.927-1.903L65,35c6.065,0,11,4.935,11,11c0,4.168-2.33,7.802-5.756,9.668"/>
	<path fill="none" stroke="#000000" stroke-width="4" stroke-linecap="round" stroke-miterlimit="10" d="M41.5,49
		c0,0-7.214,19.194-19.642,20.905"/>
</g>
<g id="Boba-Fett">
</g>
<g id="R2D2">
</g>
<g id="Battle-Droid">
</g>
<g id="BB8">
</g>
<g id="C3PO">
</g>
<g id="BONUS">
</g>
</svg>
